<svg width="120" height="100" viewBox="0 0 120 100" fill="none" xmlns="http://www.w3.org/2000/svg">
    <g id="Triangles" clip-path="url(#clip0)">
        <g id="green">
            <path id="green_2" opacity="0.7" d="M48 48.268C49.3333 49.0378 49.3333 50.9623 48 51.7321L13.5 71.6506C12.1667 72.4204 10.5 71.4582 10.5 69.9186L10.5 30.0814C10.5 28.5418 12.1667 27.5796 13.5 28.3494L48 48.268Z" fill="#87FFDB"/>
        </g>
        <g id="blue">
            <path id="blue 1" opacity="0.7" d="M63 48.268C64.3333 49.0378 64.3333 50.9623 63 51.7321L28.5 71.6506C27.1667 72.4204 25.5 71.4582 25.5 69.9186L25.5 30.0814C25.5 28.5418 27.1667 27.5796 28.5 28.3494L63 48.268Z" fill="#50C0FF"/>
            <path id="blue 2" opacity="0.7" d="M48 48.268C49.3333 49.0378 49.3333 50.9623 48 51.7321L13.5 71.6506C12.1667 72.4204 10.5 71.4582 10.5 69.9186L10.5 30.0814C10.5 28.5418 12.1667 27.5796 13.5 28.3494L48 48.268Z" fill="#50C0FF"/>
        </g>
    </g>
    <defs>
        <clipPath id="clip0">
            <rect width="120" height="100" fill="white"/>
        </clipPath>
    </defs>
</svg>
